<?xml version="1.0" encoding="utf-8"?>
<!-- Generator: Adobe Illustrator 25.2.1, SVG Export Plug-In . SVG Version: 6.00 Build 0)  -->
<svg version="1.1" id="Calque_1" xmlns="http://www.w3.org/2000/svg" xmlns:xlink="http://www.w3.org/1999/xlink" x="0px" y="0px"
	 viewBox="0 0 1920 652" style="enable-background:new 0 0 1920 652;" xml:space="preserve">
<style type="text/css">
	.st0{fill:#15FF91;}
	.st1{fill:#FFFFFF;}
</style>
<g>
	<g>
		<path class="st0" d="M153.7,372.6c-1.1,4,1.8,8.1,6,8.2c2.8,0,5.7,0,8.6-0.2c47-3.4,85-41.8,87.8-88.8
			c3.3-55.1-40.4-100.9-94.8-100.9c-35.2,0-65.9,19.1-82.3,47.5c-2,3.5-0.5,7.9,3.2,9.6c8.2,3.8,17.5,6.6,24.5,8.8
			c2,0.6,3.8,1.2,5.5,1.7c19.9,6.3,40.5,12.8,49.1,30c11,22,4.1,44.7-3.1,68.6C156.8,362.1,155.2,367.3,153.7,372.6z"/>
		<g>
			<path class="st1" d="M326.3,37.7C261.8-11,157.3-11.4,90.2,27.4C34.6,59.5,3.7,114,1,173.9c-5.9,131.2,95.8,178.4,63.6,281.9
				c-34.2,109.7-6.7,195.4,85.5,195.9c92.3,0.4,187-132.8,251.1-368.8C424.5,196.7,404.7,96.9,326.3,37.7z M371.2,256.6
				c-31.8,152-117.2,245.2-182.8,245.2c-4.1,0-8.1-0.4-12-1.1c-42-7.8-66.3-62.6-48.7-130.3c8.1-31.1,19.1-53.5,10.7-70.5
				c-3.7-7.4-18.3-12.1-33.8-17c-18.9-6-53.4-14.4-63.8-39.4c-17.5-42-13.4-94.8,14-137.2c29.8-46.1,81.4-73.6,141.5-75.3
				c53.5-1.5,101.8,20.1,135.9,61C369.6,136.7,383.8,196.7,371.2,256.6z"/>
		</g>
	</g>
</g>
<g>
	<g>
		<path class="st1" d="M622.9,560.4l-33,90.4h21.4l6.9-20.2h28.1l7,20.2h21.4l-33-90.4H622.9z M621.5,616.2l10.8-32l10.6,32H621.5z"
			/>
		<path class="st1" d="M762,606.7c0,3.3-0.3,6.6-1,9.7c-0.6,3.2-1.7,6-3.2,8.5c-1.5,2.5-3.5,4.4-6,5.9c-2.5,1.5-5.5,2.2-9,2.2
			c-3.6,0-6.6-0.7-9-2.2c-2.4-1.4-4.4-3.4-5.9-5.9c-1.5-2.5-2.6-5.3-3.3-8.4c-0.7-3.1-1-6.5-1-9.9v-46.2h-20.9v46.2
			c0,5.9,0.7,11.6,2.2,17.1c1.5,5.4,3.8,10.2,7,14.3c3.2,4.1,7.3,7.4,12.4,9.9s11.2,3.7,18.5,3.7c7,0,13-1.2,18-3.5
			c5-2.3,9.2-5.5,12.5-9.6c3.3-4.1,5.7-8.8,7.3-14.3c1.6-5.4,2.4-11.3,2.4-17.6v-46.2H762V606.7z"/>
		<path class="st1" d="M891.4,573.7c-3.8-4.1-8.5-7.3-14.1-9.7c-5.6-2.4-12.1-3.6-19.6-3.6H824v90.4h33.7c6.8,0,13-1.1,18.5-3.2
			c5.6-2.2,10.3-5.2,14.3-9.2c3.9-4,7-8.7,9.1-14.3c2.1-5.6,3.2-11.8,3.2-18.7c0-6.2-1-12-2.9-17.5
			C898,582.5,895.2,577.8,891.4,573.7z M879.9,616.3c-1.1,3.3-2.6,6.1-4.6,8.5c-2,2.4-4.5,4.3-7.4,5.7c-3,1.4-6.4,2-10.2,2h-12.9
			v-53.7h12.9c3.7,0,7.1,0.6,10.1,1.9c3,1.3,5.5,3.1,7.5,5.5c2,2.4,3.6,5.2,4.6,8.5c1.1,3.3,1.6,6.9,1.6,10.9
			C881.5,609.4,881,613,879.9,616.3z"/>
		<rect x="939.9" y="560.4" class="st1" width="20.9" height="90.4"/>
		<polygon class="st1" points="993.6,578.8 1021.2,578.8 1021.2,650.9 1042.1,650.9 1042.1,578.8 1069.6,578.8 1069.6,560.4 
			993.6,560.4 		"/>
		<rect x="1102.3" y="560.4" class="st1" width="20.9" height="90.4"/>
		<path class="st1" d="M1237.8,574.3c-3.9-4.3-8.6-7.8-14.1-10.4c-5.5-2.6-11.6-4-18.3-4c-6.5,0-12.6,1.3-18.1,3.8
			c-5.5,2.5-10.3,5.9-14.3,10.1c-4,4.2-7.2,9.1-9.4,14.6c-2.2,5.5-3.4,11.3-3.4,17.2c0,5.9,1.1,11.5,3.2,17.1
			c2.2,5.5,5.2,10.4,9.1,14.7c3.9,4.3,8.6,7.7,14.1,10.4c5.5,2.6,11.6,3.9,18.3,3.9c6.5,0,12.6-1.3,18.1-3.8
			c5.5-2.5,10.3-5.9,14.3-10.1c4-4.2,7.1-9.1,9.4-14.6c2.2-5.5,3.4-11.2,3.4-17.2c0-5.7-1.1-11.3-3.2-16.8
			C1244.8,583.6,1241.8,578.7,1237.8,574.3z M1227.3,615.5c-1,3.3-2.4,6.2-4.4,8.8c-2,2.6-4.4,4.7-7.4,6.3c-3,1.6-6.5,2.4-10.4,2.4
			c-3.8,0-7.2-0.8-10.2-2.3c-3-1.5-5.5-3.6-7.4-6.1c-2-2.5-3.5-5.5-4.5-8.7c-1-3.3-1.5-6.6-1.5-10.1c0-3.4,0.5-6.7,1.5-10
			c1-3.3,2.5-6.2,4.5-8.7c2-2.5,4.5-4.6,7.4-6.2c2.9-1.6,6.4-2.4,10.4-2.4c3.8,0,7.2,0.7,10.1,2.2c2.9,1.5,5.4,3.5,7.4,6
			s3.6,5.4,4.6,8.7c1,3.3,1.5,6.6,1.5,10.1C1228.8,608.9,1228.3,612.3,1227.3,615.5z"/>
		<polygon class="st1" points="1345.3,560.4 1345.3,613.5 1303.1,560.4 1286.8,560.4 1286.8,650.9 1307.7,650.9 1307.7,599.2 
			1349.4,650.9 1366.2,650.9 1366.2,560.4 		"/>
	</g>
	<g>
		<path class="st1" d="M781.5,234.1c20.6-9.9,36.2-23.8,46.7-41.7c10.5-17.8,15.8-37.9,15.8-60.1c0-34.5-13.3-62.7-39.9-84.5
			c-26.6-21.8-67-32.7-121.4-32.7c-25.8,0-52.6,2.7-80.3,8c-27.8,5.4-50.2,11.4-67.2,18.1l7.1,22h34.5c4.8,0,8.1,1.1,10.1,3.3
			c2,2.2,3,5.9,3,11v293.9c0,18.3-2.6,30.9-7.7,38.1c-5.2,7.1-15.3,12.9-30.3,17.3l-13.7,3.6l7.1,20.2h166
			c53.9,0,93.2-10.5,117.8-31.5c24.6-21,36.9-49.6,36.9-85.7c0-21.8-7.4-41.7-22.3-59.5C828.8,256.1,808.1,242.8,781.5,234.1z
			 M780.3,395c-15.9,16.5-37.7,24.7-65.5,24.7c-17.9,0-33.3-4.9-46.4-14.6c-13.1-9.7-19.6-30.8-19.6-63.4v-266
			c0-18.2,13.3-27.4,39.9-27.4c30.5,0,54.2,7.9,71.1,23.8c16.9,15.9,25.3,36.3,25.3,61.3c0,26.2-7.4,47.2-22.3,63.1
			c-14.9,15.9-35.8,23.8-62.8,23.8c-8.3,0-15-0.7-19.9-2.1c-5-1.4-8.2-2.1-9.8-2.1c-5.6,0-8.3,3.6-8.3,10.7c0,6,3,10.3,8.9,13.1
			c4.4,2,10.2,3.8,17.6,5.4c7.3,1.6,14.4,2.4,21.1,2.4c19,0,35.7,3.8,50,11.3c14.3,7.5,25.3,17.6,33,30
			c7.7,12.5,11.6,26.3,11.6,41.4C804.1,357.1,796.2,378.6,780.3,395z"/>
		<path class="st1" d="M1149.5,383.4c-2,0-3.8,0.8-5.4,2.4c-23,22.6-52,33.9-86.9,33.9c-28.6,0-50.4-10-65.5-30.1
			c-15.1-20-22.6-47.7-22.6-83c0-41.7,7.1-73.7,21.4-96.1c14.3-22.4,34.1-33.6,59.5-33.6c17.9,0,31.7,5.7,41.7,17
			c9.9,11.3,14.9,24.7,14.9,40.2c0,18.2-6.6,34.1-19.9,47.6c-13.3,13.5-31.8,20.2-55.6,20.2c-10.7,0-19.4-1.3-26.2-3.9
			c-6.7-2.6-10.7-3.9-11.9-3.9c-2.4,0-4.5,1.4-6.2,4.2c-1.8,2.8-2.7,5.8-2.7,8.9c0,9.1,7.7,16.1,23.2,20.8
			c15.5,4.8,29.5,7.1,42.2,7.1c23.8,0,44.2-4.9,61.3-14.6c17.1-9.7,30-22.3,39-37.8c8.9-15.5,13.4-31.5,13.4-48.2
			c0-15.5-3.8-29.8-11.3-43.1c-7.5-13.3-18.9-24-34.2-32.1c-15.3-8.1-33.8-12.2-55.6-12.2c-30.9,0-58,6.6-81.2,19.9
			c-23.2,13.3-41.2,31.9-53.9,55.9c-12.7,24-19,51.9-19,83.6c0,30.2,5.7,56.7,17,79.7c11.3,23,27.3,40.9,47.9,53.6
			c20.6,12.7,44.6,19,72,19c23.4,0,45.2-4.6,65.5-13.7c20.2-9.1,37.7-22.2,52.4-39.3c1.6-1.6,2.4-3.4,2.4-5.4c0-4-1.8-7.8-5.4-11.6
			C1156.1,385.3,1152.7,383.4,1149.5,383.4z"/>
		<path class="st1" d="M1381.7,147.2c-16.7,0-32,8.1-46.1,24.4c-14.1,16.3-24.5,37.7-31.2,64.3h-3.6v-63.7c0-5.6-1.8-10.1-5.4-13.7
			c-3.6-3.6-8.1-5.4-13.7-5.4c-11.1,0-24.1,3.4-39,10.1c-14.9,6.7-28.1,15.3-39.6,25.6l5.4,15.5h26.2c4.4,0,7.4,1,9.2,3
			c1.8,2,2.7,5.4,2.7,10.1v167.2c0,15.1-1.7,25.7-5.1,31.8c-3.4,6.2-10,10.4-19.9,12.8l-12.5,3l6.5,18.4h104.1l7.1-8.9l-7.1-9.5
			c-7.1-9.9-12.1-20.3-14.9-31.2c-2.8-10.9-4.2-25.3-4.2-43.1c0-38.5,3.6-70.3,10.7-95.5c7.1-25.2,15.8-43.4,25.9-54.7
			c10.1-11.3,19.9-17,29.5-17c5.6,0,10.2,2.1,14,6.2c3.8,4.2,5.7,9.8,5.7,17c0,6.4-1.1,12.1-3.3,17.3c-2.2,5.2-5,10.1-8.3,14.9
			c-3.4,4.8-5.1,7.7-5.1,8.9c0,4.4,3.8,6.5,11.3,6.5c16.7,0,30.5-5.2,41.7-15.5c11.1-10.3,16.7-23,16.7-38.1
			c0-18.6-5.5-33.4-16.4-44.3C1412.1,152.7,1398.3,147.2,1381.7,147.2z"/>
		<path class="st1" d="M1630.3,192.4c4.4-3.2,7.7-8.1,10.1-14.9c2.4-6.7,3.6-14.3,3.6-22.6h-77.4V74.6c-11.5,0-18.7,0.8-21.7,2.4
			c-3,1.6-5.1,5.6-6.2,11.9c-4,19.8-10.4,36-19.3,48.5c-8.9,12.5-23.9,21.5-44.9,27.1c-6.4,1.6-10.3,4-11.9,7.1
			c-1.6,3.2-2.4,10.1-2.4,20.8h52.4v209.5c0,17.9,4.5,31.8,13.4,42c8.9,10.1,21.5,15.2,37.8,15.2c12.7,0,26.2-4.1,40.5-12.2
			c14.3-8.1,26.6-18.9,36.9-32.4l-11.3-15.5c-15.1,12.7-28.6,19-40.5,19c-7.9,0-13.7-2.6-17.3-7.7c-3.6-5.2-5.4-13.9-5.4-26.2V192.4
			H1630.3z"/>
		<path class="st1" d="M1915.4,389.1c-3.6-3.8-6.9-5.7-10.1-5.7c-2,0-3.8,0.8-5.4,2.4c-23,22.6-52,33.9-86.9,33.9
			c-28.6,0-50.4-10-65.5-30.1c-15.1-20-22.6-47.7-22.6-83c0-41.7,7.1-73.7,21.4-96.1c14.3-22.4,34.1-33.6,59.5-33.6
			c17.9,0,31.7,5.7,41.7,17c9.9,11.3,14.9,24.7,14.9,40.2c0,18.2-6.6,34.1-19.9,47.6c-13.3,13.5-31.8,20.2-55.6,20.2
			c-10.7,0-19.4-1.3-26.2-3.9c-6.7-2.6-10.7-3.9-11.9-3.9c-2.4,0-4.5,1.4-6.2,4.2c-1.8,2.8-2.7,5.8-2.7,8.9
			c0,9.1,7.7,16.1,23.2,20.8c15.5,4.8,29.5,7.1,42.2,7.1c23.8,0,44.2-4.9,61.3-14.6c17.1-9.7,30-22.3,39-37.8
			c8.9-15.5,13.4-31.5,13.4-48.2c0-15.5-3.8-29.8-11.3-43.1c-7.5-13.3-18.9-24-34.2-32.1c-15.3-8.1-33.8-12.2-55.6-12.2
			c-30.9,0-58,6.6-81.2,19.9c-23.2,13.3-41.2,31.9-53.9,55.9c-12.7,24-19,51.9-19,83.6c0,30.2,5.7,56.7,17,79.7
			c11.3,23,27.3,40.9,47.9,53.6c20.6,12.7,44.6,19,72,19c23.4,0,45.2-4.6,65.5-13.7c20.2-9.1,37.7-22.2,52.4-39.3
			c1.6-1.6,2.4-3.4,2.4-5.4C1920.8,396.7,1919,392.9,1915.4,389.1z"/>
	</g>
</g>
</svg>
